<?xml version="1.0" encoding="UTF-8" standalone="no"?>
<svg
   xmlns:dc="http://purl.org/dc/elements/1.1/"
   xmlns:cc="http://creativecommons.org/ns#"
   xmlns:rdf="http://www.w3.org/1999/02/22-rdf-syntax-ns#"
   xmlns:svg="http://www.w3.org/2000/svg"
   xmlns="http://www.w3.org/2000/svg"
   xmlns:sodipodi="http://sodipodi.sourceforge.net/DTD/sodipodi-0.dtd"
   xmlns:inkscape="http://www.inkscape.org/namespaces/inkscape"
   version="1.1"
   width="10in"
   height="4.5in"
   viewBox=" 0 0 900 405"
   id="svg5852"
   inkscape:version="0.48.4 r9939"
   sodipodi:docname="CaseEnclosure-Final.svg">
  <metadata
     id="metadata5882">
    <rdf:RDF>
      <cc:Work
         rdf:about="">
        <dc:format>image/svg+xml</dc:format>
        <dc:type
           rdf:resource="http://purl.org/dc/dcmitype/StillImage" />
        <dc:title />
      </cc:Work>
    </rdf:RDF>
  </metadata>
  <defs
     id="defs5880" />
  <sodipodi:namedview
     pagecolor="#ffffff"
     bordercolor="#666666"
     borderopacity="1"
     objecttolerance="10"
     gridtolerance="10"
     guidetolerance="10"
     inkscape:pageopacity="0"
     inkscape:pageshadow="2"
     inkscape:window-width="1934"
     inkscape:window-height="1272"
     id="namedview5878"
     showgrid="false"
     inkscape:zoom="0.8688889"
     inkscape:cx="-120.05098"
     inkscape:cy="302.57598"
     inkscape:window-x="0"
     inkscape:window-y="0"
     inkscape:window-maximized="0"
     inkscape:current-layer="svg5852" />
  <!-- Front-->
  <g
     transform="translate(22.5, 22.5) "
     id="g5854">
    <polygon
       style="stroke:#000000; fill:none; stroke-width:0.9"
       points="0, 0 45.576, 0 45.576, 10.62 90, 10.62 90, 0 117.576, 0 117.576, 10.62 144, 10.62 144, 0 171.576, 0 171.576, 10.62 198, 10.62 198, 0 225.576, 0 225.576, 10.62 270, 10.62 270, 0 315.576, 0 315.576, 27.576 304.956, 27.576 304.956, 54 315.576, 54 315.576, 81.576 304.956, 81.576 304.956, 108 315.576, 108 315.576, 135.576 270, 135.576 270, 124.95599999999999 225.576, 124.95599999999999 225.576, 135.576 198, 135.576 198, 124.95599999999999 171.576, 124.95599999999999 171.576, 135.576 144, 135.576 144, 124.95599999999999 117.576, 124.95599999999999 117.576, 135.576 90, 135.576 90, 124.95599999999999 45.576, 124.95599999999999 45.576, 135.576 0, 135.576 0, 108 10.62, 108 10.62, 81.576 0, 81.576 0, 54 10.62, 54 10.62, 27.576 0, 27.576 "
       id="polygon5856" />
  </g>
  <!-- Back-->
  <g
     transform="translate(338.076, 22.5) "
     id="g5858">
    <polygon
       style="stroke:#000000; fill:none; stroke-width:0.9"
       points="0, 0 45.576, 0 45.576, 10.62 90, 10.62 90, 0 117.576, 0 117.576, 10.62 144, 10.62 144, 0 171.576, 0 171.576, 10.62 198, 10.62 198, 0 225.576, 0 225.576, 10.62 270, 10.62 270, 0 315.576, 0 315.576, 27.576 304.956, 27.576 304.956, 54 315.576, 54 315.576, 81.576 304.956, 81.576 304.956, 108 315.576, 108 315.576, 135.576 270, 135.576 270, 124.95599999999999 225.576, 124.95599999999999 225.576, 135.576 198, 135.576 198, 124.95599999999999 171.576, 124.95599999999999 171.576, 135.576 144, 135.576 144, 124.95599999999999 117.576, 124.95599999999999 117.576, 135.576 90, 135.576 90, 124.95599999999999 45.576, 124.95599999999999 45.576, 135.576 0, 135.576 0, 108 10.62, 108 10.62, 81.576 0, 81.576 0, 54 10.62, 54 10.62, 27.576 0, 27.576 "
       id="polygon5860" />
  </g>
  <!-- Left-->
  <path
     style="fill:none;stroke:#000000;stroke-width:0.89999998"
     d="M 664.28125 22.5 L 664.28125 49.5 L 653.65625 49.5 L 653.65625 77.0625 L 664.28125 77.0625 L 664.28125 103.5 L 653.65625 103.5 L 653.65625 131.0625 L 664.28125 131.0625 L 664.28125 158.0625 L 690.21875 158.0625 L 690.21875 147.46875 L 725.65625 147.46875 L 725.65625 158.0625 L 753.21875 158.0625 L 753.21875 147.46875 L 779.65625 147.46875 L 779.65625 158.0625 L 807.21875 158.0625 L 807.21875 147.46875 L 842.65625 147.46875 L 842.65625 158.0625 L 868.59375 158.0625 L 868.59375 131.0625 L 879.21875 131.0625 L 879.21875 103.5 L 868.59375 103.5 L 868.59375 77.0625 L 879.21875 77.0625 L 879.21875 49.5 L 868.59375 49.5 L 868.59375 22.5 L 842.65625 22.5 L 842.65625 33.125 L 807.21875 33.125 L 807.21875 22.5 L 779.65625 22.5 L 779.65625 33.125 L 753.21875 33.125 L 753.21875 22.5 L 725.65625 22.5 L 725.65625 33.125 L 690.21875 33.125 L 690.21875 22.5 L 664.28125 22.5 z M 783.34375 67.8125 L 832.84375 67.8125 L 832.84375 101.125 L 783.34375 101.125 L 783.34375 67.8125 z M 715.0625 70.53125 C 722.76687 70.53125 729 76.764377 729 84.46875 C 729 92.173122 722.76687 98.4375 715.0625 98.4375 C 707.35813 98.4375 701.09375 92.173122 701.09375 84.46875 C 701.09375 76.764377 707.35813 70.53125 715.0625 70.53125 z "
     id="polygon5864" />
  <!-- Right-->
  <g
     transform="translate(653.652, 158.076) "
     id="g5866">
    <polygon
       style="stroke:#000000; fill:none; stroke-width:0.9"
       points="10.62, 0 36.576, 0 36.576, 10.62 72, 10.62 72, 0 99.576, 0 99.576, 10.62 126, 10.62 126, 0 153.576, 0 153.576, 10.62 189, 10.62 189, 0 214.95600000000002, 0 214.95600000000002, 27 225.57600000000002, 27 225.57600000000002, 54.576 214.95600000000002, 54.576 214.95600000000002, 81 225.57600000000002, 81 225.57600000000002, 108.576 214.95600000000002, 108.576 214.956, 135.576 189, 135.576 189, 124.95599999999999 153.576, 124.95599999999999 153.576, 135.576 126, 135.576 126, 124.95599999999999 99.576, 124.95599999999999 99.576, 135.576 72, 135.576 72, 124.95599999999999 36.576, 124.95599999999999 36.576, 135.576 10.62, 135.576 10.62, 108.576 0, 108.576 0, 81 10.62, 81 10.62, 54.576 0, 54.576 0, 27 10.62, 27 "
       id="polygon5868" />
  </g>
  <!-- Top-->
  <g
     transform="translate(22.5, 158.076) "
     id="g5870">
    <polygon
       style="stroke:#000000; fill:none; stroke-width:0.9"
       points="10.62, 10.62 45, 10.62 45, 0 90.576, 0 90.576, 10.62 117, 10.62 117, 0 144.576, 0 144.576, 10.62 171, 10.62 171, 0 198.576, 0 198.576, 10.62 225, 10.62 225, 0 270.576, 0 270.576, 10.62 304.956, 10.62 304.956, 36 315.576, 36 315.576, 72.576 304.956, 72.576 304.956, 99 315.576, 99 315.576, 126.576 304.956, 126.576 304.956, 153 315.576, 153 315.576, 189.576 304.956, 189.576 304.956, 214.95600000000002 270.576, 214.95600000000002 270.576, 225.57600000000002 225, 225.57600000000002 225, 214.95600000000002 198.576, 214.95600000000002 198.576, 225.57600000000002 171, 225.57600000000002 171, 214.95600000000002 144.576, 214.95600000000002 144.576, 225.57600000000002 117, 225.57600000000002 117, 214.95600000000002 90.576, 214.95600000000002 90.576, 225.57600000000002 45, 225.57600000000002 45, 214.95600000000002 10.62, 214.956 10.62, 189.576 0, 189.576 0, 153 10.62, 153 10.62, 126.576 0, 126.576 0, 99 10.62, 99 10.62, 72.576 0, 72.576 0, 36 10.62, 36 "
       id="polygon5872" />
  </g>
  <!-- Bottom-->
  <g
     transform="translate(338.076, 158.076) "
     id="g5874">
    <polygon
       style="stroke:#000000; fill:none; stroke-width:0.9"
       points="10.62, 10.62 45, 10.62 45, 0 90.576, 0 90.576, 10.62 117, 10.62 117, 0 144.576, 0 144.576, 10.62 171, 10.62 171, 0 198.576, 0 198.576, 10.62 225, 10.62 225, 0 270.576, 0 270.576, 10.62 304.956, 10.62 304.956, 36 315.576, 36 315.576, 72.576 304.956, 72.576 304.956, 99 315.576, 99 315.576, 126.576 304.956, 126.576 304.956, 153 315.576, 153 315.576, 189.576 304.956, 189.576 304.956, 214.95600000000002 270.576, 214.95600000000002 270.576, 225.57600000000002 225, 225.57600000000002 225, 214.95600000000002 198.576, 214.95600000000002 198.576, 225.57600000000002 171, 225.57600000000002 171, 214.95600000000002 144.576, 214.95600000000002 144.576, 225.57600000000002 117, 225.57600000000002 117, 214.95600000000002 90.576, 214.95600000000002 90.576, 225.57600000000002 45, 225.57600000000002 45, 214.95600000000002 10.62, 214.956 10.62, 189.576 0, 189.576 0, 153 10.62, 153 10.62, 126.576 0, 126.576 0, 99 10.62, 99 10.62, 72.576 0, 72.576 0, 36 10.62, 36 "
       id="polygon5876" />
  </g>
  <flowRoot
     xml:space="preserve"
     id="flowRoot3229"
     style="font-size:40px;font-style:normal;font-weight:normal;line-height:125%;letter-spacing:0px;word-spacing:0px;fill:#000000;fill-opacity:1;stroke:none;font-family:Sans"><flowRegion
       id="flowRegion3231"><rect
         id="rect3233"
         width="878.133"
         height="50.639385"
         x="14.961637"
         y="-34.641937" /></flowRegion><flowPara
       id="flowPara3235">Control box mounted to the back</flowPara></flowRoot></svg>
